<svg xmlns="http://www.w3.org/2000/svg" width="64" height="64" viewBox="0 0 64 64" role="img" aria-labelledby="title">
  <title id="title">FUBUKI_BB · MC-2D Lighthouse</title>
  <rect width="64" height="64" rx="12" fill="#101d34"/>
  <path d="M28 21 8 16v16l20-7Zm8 0 20-5v16L36 25Z" fill="#ffdda0" opacity=".12"/>
  <g shape-rendering="crispEdges">
    <path d="M12 8h4v4h4v4h-4v4h-4v-4H8v-4h4Z" fill="#bce8ed"/>
    <rect x="48" y="8" width="4" height="4" fill="#e9e5d7"/>
    <g id="lighthouse">
      <path d="M28 12h8v4h8v4H20v-4h8Z" fill="#7a899b"/>
      <rect x="24" y="20" width="16" height="8" fill="#f4c77e"/>
      <rect x="28" y="20" width="8" height="8" fill="#fff0bb"/>
      <rect x="20" y="28" width="24" height="4" fill="#7a899b"/>
      <path d="M28 32h8v8h4v12H24V40h4Z" fill="#e9e5d7"/>
      <path d="M32 32h4v8h4v12h-8Z" fill="#bcc7cb"/>
      <rect x="24" y="40" width="16" height="4" fill="#a26870"/>
      <rect x="28" y="48" width="8" height="4" fill="#34485b"/>
    </g>
    <g id="sea">
      <path d="M8 52h16v4h16v-4h16v4H44v4H20v-4H8Z" fill="#4bb9c6"/>
      <path d="M8 56h12v4H8Zm36 0h12v4H44Z" fill="#24596f"/>
    </g>
  </g>
</svg>
